<svg width="26" height="26" viewBox="0 0 26 26" fill="none" xmlns="http://www.w3.org/2000/svg">
<path d="M13.5624 25.4559C13.0298 25.4559 12.4971 25.4559 11.9645 25.4559C11.6516 25.4161 11.3386 25.3829 11.0324 25.343C8.66876 25.0043 6.55151 24.1012 4.70723 22.5872C2.27705 20.5883 0.765674 18.045 0.199741 14.9504C0.113187 14.4789 0.0665803 14.0008 0 13.5293C0 12.9981 0 12.4668 0 11.9356C0.0133161 11.8559 0.0332902 11.7762 0.0466062 11.6965C0.126503 11.1653 0.166451 10.6274 0.279637 10.1028C1.01202 6.76251 2.80303 4.1129 5.6327 2.19376C8.41576 0.301174 11.5117 -0.349608 14.8341 0.175002C17.231 0.553518 19.3482 1.55625 21.1592 3.16329C23.9423 5.63361 25.4137 8.74806 25.5202 12.4668C25.5868 14.8707 25.0009 17.1352 23.7492 19.1938C21.7318 22.5075 18.7956 24.5395 14.9673 25.2633C14.4945 25.3497 14.0285 25.3961 13.5624 25.4559ZM23.8224 12.7391C23.8358 6.66954 18.8622 1.70235 12.7635 1.69571C6.68467 1.69571 1.72443 6.6297 1.6978 12.7059C1.67117 18.7688 6.63806 23.7426 12.7435 23.7625C18.8289 23.7825 23.8091 18.8219 23.8224 12.7391Z" fill="#FBDAA8"/>
<path d="M11.9112 9.33235C11.9112 8.20344 11.9112 7.08117 11.9112 5.95226C11.9112 5.5007 12.2241 5.16203 12.6636 5.1089C13.0764 5.05578 13.4758 5.32804 13.5757 5.7464C13.6023 5.85929 13.6023 5.97882 13.6023 6.09172C13.6023 8.09055 13.609 10.0827 13.5957 12.0816C13.5957 12.2675 13.6556 12.3804 13.8021 12.4933C15.0405 13.4695 16.2656 14.4589 17.5039 15.4417C17.7902 15.6742 17.9101 15.9663 17.8368 16.3183C17.7769 16.6238 17.5772 16.8363 17.2776 16.9359C16.9513 17.0421 16.665 16.9492 16.3987 16.7367C15.633 16.1191 14.8541 15.5015 14.0884 14.8906C13.4892 14.4124 12.8966 13.9343 12.2974 13.4628C12.031 13.2503 11.9045 12.9913 11.9045 12.646C11.9179 11.5304 11.9112 10.4281 11.9112 9.33235Z" fill="#FBDAA8"/>
</svg>
