<svg width="94" height="16" viewBox="0 0 94 16" fill="none" xmlns="http://www.w3.org/2000/svg">
<path d="M8.2525 0L10.0155 5.42584H15.7205L11.105 8.77919L12.868 14.205L8.2525 10.8517L3.637 14.205L5.39996 8.77919L0.784468 5.42584H6.48953L8.2525 0Z" fill="#FBDAA8"/>
<path d="M27.7264 0.000244141L29.4893 5.42608H35.1944L30.5789 8.77944L32.3419 14.2053L27.7264 10.8519L23.1109 14.2053L24.8738 8.77944L20.2583 5.42608H25.9634L27.7264 0.000244141Z" fill="#FBDAA8"/>
<path d="M47.2002 0.000244141L48.9632 5.42608H54.6683L50.0528 8.77944L51.8157 14.2053L47.2002 10.8519L42.5848 14.2053L44.3477 8.77944L39.7322 5.42608H45.4373L47.2002 0.000244141Z" fill="#FBDAA8"/>
<path d="M66.6741 0.000244141L68.4371 5.42608H74.1422L69.5267 8.77944L71.2896 14.2053L66.6741 10.8519L62.0586 14.2053L63.8216 8.77944L59.2061 5.42608H64.9112L66.6741 0.000244141Z" fill="#FBDAA8"/>
<path d="M86.1479 0.000244141L87.9108 5.42608H93.6159L89.0004 8.77944L90.7634 14.2053L86.1479 10.8519L81.5324 14.2053L83.2953 8.77944L78.6799 5.42608H84.3849L86.1479 0.000244141Z" fill="#FBDAA8"/>
</svg>
