<svg width="62" height="62" viewBox="0 0 62 62" fill="none" xmlns="http://www.w3.org/2000/svg">
<circle cx="31" cy="31" r="31" fill="#3F3B36"/>
<path d="M31.5 23.625C30.1403 23.625 28.811 24.0282 27.6805 24.7836C26.5499 25.5391 25.6687 26.6128 25.1483 27.8691C24.628 29.1253 24.4918 30.5076 24.7571 31.8412C25.0224 33.1749 25.6772 34.3999 26.6386 35.3614C27.6001 36.3228 28.8251 36.9776 30.1588 37.2429C31.4924 37.5082 32.8747 37.372 34.1309 36.8517C35.3872 36.3313 36.4609 35.4501 37.2164 34.3195C37.9718 33.189 38.375 31.8597 38.375 30.5C38.375 28.6766 37.6507 26.928 36.3614 25.6386C35.072 24.3493 33.3234 23.625 31.5 23.625ZM31.5 34.625C30.6842 34.625 29.8866 34.3831 29.2083 33.9298C28.5299 33.4766 28.0012 32.8323 27.689 32.0786C27.3768 31.3248 27.2951 30.4954 27.4543 29.6953C27.6134 28.8951 28.0063 28.1601 28.5832 27.5832C29.1601 27.0063 29.8951 26.6134 30.6953 26.4543C31.4954 26.2951 32.3248 26.3768 33.0786 26.689C33.8323 27.0012 34.4766 27.5299 34.9298 28.2083C35.3831 28.8866 35.625 29.6842 35.625 30.5C35.625 31.594 35.1904 32.6432 34.4168 33.4168C33.6432 34.1904 32.594 34.625 31.5 34.625ZM38.375 22.25C38.1031 22.25 37.8372 22.3306 37.6111 22.4817C37.385 22.6328 37.2087 22.8476 37.1047 23.0988C37.0006 23.3501 36.9734 23.6265 37.0264 23.8932C37.0795 24.16 37.2104 24.405 37.4027 24.5973C37.595 24.7896 37.84 24.9205 38.1068 24.9736C38.3735 25.0266 38.6499 24.9994 38.9012 24.8953C39.1524 24.7913 39.3672 24.615 39.5183 24.3889C39.6694 24.1628 39.75 23.8969 39.75 23.625C39.75 23.2603 39.6051 22.9106 39.3473 22.6527C39.0894 22.3949 38.7397 22.25 38.375 22.25ZM45.1675 25.33C45.1447 24.155 44.9215 22.9924 44.5075 21.8925C44.1236 20.8916 43.5334 19.9826 42.7754 19.2246C42.0174 18.4666 41.1084 17.8764 40.1075 17.4925C39.0076 17.0785 37.845 16.8553 36.67 16.8325C35.3363 16.75 34.8962 16.75 31.5 16.75C28.1038 16.75 27.6637 16.75 26.33 16.8325C25.155 16.8553 23.9924 17.0785 22.8925 17.4925C21.8916 17.8764 20.9826 18.4666 20.2246 19.2246C19.4666 19.9826 18.8764 20.8916 18.4925 21.8925C18.0785 22.9924 17.8553 24.155 17.8325 25.33C17.75 26.6775 17.75 27.1175 17.75 30.5C17.75 33.8825 17.75 34.3225 17.8325 35.67C17.8553 36.845 18.0785 38.0076 18.4925 39.1075C18.8764 40.1084 19.4666 41.0174 20.2246 41.7754C20.9826 42.5334 21.8916 43.1236 22.8925 43.5075C23.9924 43.9215 25.155 44.1447 26.33 44.1675C27.705 44.1675 28.1038 44.25 31.5 44.25C34.8962 44.25 35.3363 44.25 36.67 44.1675C37.845 44.1447 39.0076 43.9215 40.1075 43.5075C41.1084 43.1236 42.0174 42.5334 42.7754 41.7754C43.5334 41.0174 44.1236 40.1084 44.5075 39.1075C44.9215 38.0076 45.1447 36.845 45.1675 35.67C45.1675 34.295 45.25 33.8825 45.25 30.5C45.25 27.1175 45.25 26.6775 45.1675 25.33ZM42.4175 35.5462C42.3934 36.4188 42.231 37.2821 41.9363 38.1038C41.6926 38.7532 41.3074 39.3403 40.8088 39.8225C40.3295 40.3214 39.7412 40.7026 39.09 40.9363C38.2664 41.243 37.3974 41.4103 36.5187 41.4313C35.2262 41.4313 34.8275 41.5 31.4862 41.5C28.145 41.5 27.76 41.5 26.4675 41.5C25.5903 41.4774 24.7223 41.3149 23.8962 41.0187C23.2468 40.7751 22.6597 40.3899 22.1775 39.8913C21.6786 39.412 21.2974 38.8237 21.0637 38.1725C20.7582 37.3533 20.591 36.489 20.5688 35.615C20.5688 34.24 20.5688 33.8962 20.5688 30.5688C20.5688 27.2413 20.5688 26.8425 20.5688 25.5225C20.5925 24.6442 20.7597 23.7756 21.0637 22.9513C21.301 22.3059 21.6819 21.7229 22.1775 21.2463C22.6568 20.7473 23.2451 20.3661 23.8962 20.1325C24.7199 19.8257 25.5889 19.6584 26.4675 19.6375C27.76 19.5 28.1587 19.5 31.5 19.5C34.8412 19.5 35.24 19.5 36.5325 19.5C37.4154 19.5225 38.2887 19.6897 39.1175 19.995C39.7629 20.2323 40.3459 20.6131 40.8225 21.1088C41.3214 21.588 41.7026 22.1763 41.9363 22.8275C42.2728 23.6643 42.4635 24.5526 42.5 25.4537C42.5 26.8287 42.5687 27.1725 42.5687 30.5C42.5687 33.8275 42.5 34.2262 42.5 35.5462H42.4175Z" fill="#FBDAA8"/>
</svg>
