<svg width="62" height="62" viewBox="0 0 62 62" fill="none" xmlns="http://www.w3.org/2000/svg">
<circle cx="31" cy="31" r="31" fill="#3F3B36"/>
<path d="M31.4922 16.75C28.7727 16.75 26.1143 17.5564 23.8531 19.0673C21.5919 20.5782 19.8296 22.7256 18.7889 25.2381C17.7481 27.7506 17.4758 30.5153 18.0064 33.1825C18.5369 35.8497 19.8465 38.2997 21.7695 40.2227C23.6924 42.1457 26.1425 43.4553 28.8097 43.9858C31.4769 44.5163 34.2416 44.244 36.7541 43.2033C39.2666 42.1626 41.414 40.4003 42.9249 38.1391C44.4358 35.8779 45.2422 33.2195 45.2422 30.5C45.2423 28.6943 44.8868 26.9062 44.1958 25.2379C43.5049 23.5696 42.4921 22.0538 41.2152 20.7769C39.9384 19.5001 38.4226 18.4873 36.7543 17.7964C35.086 17.1054 33.2979 16.7499 31.4922 16.75ZM35.864 37.5846C35.8126 37.713 35.7342 37.8288 35.6343 37.9244C35.5345 38.02 35.4153 38.0931 35.2848 38.1389C35.1543 38.1847 35.0156 38.202 34.8779 38.1898C34.7401 38.1775 34.6066 38.136 34.4863 38.068L30.7536 35.1676L28.3579 37.3778C28.3023 37.4188 28.2373 37.4453 28.1688 37.4546C28.1003 37.464 28.0306 37.4559 27.966 37.4313L28.4253 33.3222L28.44 33.3338L28.4494 33.2527C28.4494 33.2527 35.1663 27.1374 35.4399 26.8768C35.7169 26.6169 35.6255 26.5606 35.6255 26.5606C35.6413 26.2436 35.1284 26.5606 35.1284 26.5606L26.2287 32.2861L22.5224 31.0239C22.5224 31.0239 21.9531 30.8197 21.8995 30.3708C21.8431 29.9253 22.5409 29.6833 22.5409 29.6833L37.2768 23.8292C37.2768 23.8292 38.4882 23.2895 38.4882 24.1833L35.864 37.5846Z" fill="#FBDAA8"/>
</svg>
