<svg width="62" height="62" viewBox="0 0 62 62" fill="none" xmlns="http://www.w3.org/2000/svg">
<circle cx="31" cy="31" r="31" fill="#3F3B36"/>
<path d="M35.7253 16.75H27.2891C19.5833 16.75 17.75 18.5833 17.75 26.2747V34.7109C17.75 42.4166 19.569 44.25 27.2747 44.25H35.7109C43.4167 44.25 45.25 42.431 45.25 34.7252V26.2891C45.25 18.5833 43.431 16.75 35.7253 16.75ZM39.9505 36.3724H37.9453C37.1862 36.3724 36.957 35.7565 35.5964 34.3958C34.4075 33.25 33.9062 33.1067 33.6055 33.1067C33.1901 33.1067 33.0755 33.2213 33.0755 33.7942V35.5989C33.0755 36.0859 32.918 36.3724 31.6433 36.3724C30.4063 36.2893 29.2068 35.9135 28.1435 35.276C27.0802 34.6385 26.1835 33.7576 25.5273 32.7057C23.9696 30.7668 22.8858 28.4912 22.362 26.0599C22.362 25.7591 22.4766 25.4869 23.0495 25.4869H25.0547C25.5703 25.4869 25.7565 25.7161 25.957 26.2461C26.931 29.1106 28.5925 31.6028 29.2656 31.6028C29.5234 31.6028 29.638 31.4883 29.638 30.8438V27.8932C29.5521 26.5469 28.8359 26.4322 28.8359 25.9453C28.8454 25.8168 28.9045 25.6971 29.0008 25.6115C29.097 25.5259 29.2229 25.4812 29.3516 25.4869H32.5026C32.9323 25.4869 33.0755 25.7018 33.0755 26.2174V30.1992C33.0755 30.6289 33.2617 30.7721 33.3906 30.7721C33.6484 30.7721 33.8489 30.6289 34.3216 30.1562C35.3373 28.9176 36.1672 27.5377 36.7852 26.0599C36.8482 25.882 36.9678 25.7298 37.1256 25.6263C37.2833 25.5228 37.4707 25.4739 37.6589 25.4869H39.6641C40.2656 25.4869 40.3945 25.7877 40.2656 26.2174C39.536 27.8513 38.6333 29.4023 37.573 30.8438C37.3581 31.1731 37.2722 31.345 37.573 31.7317C37.7734 32.0325 38.4753 32.6197 38.948 33.1783C39.6354 33.8641 40.2063 34.6575 40.638 35.5273C40.8099 36.0859 40.5234 36.3724 39.9505 36.3724Z" fill="#FBDAA8"/>
</svg>
