<svg width="62" height="62" viewBox="0 0 62 62" fill="none" xmlns="http://www.w3.org/2000/svg">
<circle cx="31" cy="31" r="31" fill="#3F3B36"/>
<path d="M45 23.1425C44.9848 22.5601 44.9398 21.9788 44.865 21.401C44.7642 20.8949 44.5962 20.4046 44.3655 19.943C44.1242 19.4423 43.8002 18.9859 43.407 18.593C43.0102 18.2045 42.5546 17.881 42.057 17.6345C41.5948 17.4083 41.1045 17.2449 40.599 17.1485C40.0267 17.0628 39.4495 17.0132 38.871 17H24.1425C23.5601 17.0152 22.9788 17.0602 22.401 17.135C21.8949 17.2358 21.4046 17.4038 20.943 17.6345C20.4423 17.8758 19.9859 18.1998 19.593 18.593C19.2045 18.9898 18.881 19.4454 18.6345 19.943C18.4083 20.4052 18.2449 20.8955 18.1485 21.401C18.0628 21.9733 18.0132 22.5505 18 23.129C18 23.3855 18 23.75 18 23.858V37.142C18 37.2905 18 37.6145 18 37.8575C18.0152 38.4399 18.0602 39.0212 18.135 39.599C18.2358 40.1051 18.4038 40.5954 18.6345 41.057C18.8758 41.5577 19.1998 42.0141 19.593 42.407C19.9898 42.7955 20.4454 43.119 20.943 43.3655C21.4052 43.5917 21.8955 43.7551 22.401 43.8515C22.9733 43.9372 23.5505 43.9868 24.129 44H38.8575C39.4399 43.9848 40.0212 43.9398 40.599 43.865C41.1051 43.7642 41.5954 43.5962 42.057 43.3655C42.5577 43.1242 43.0141 42.8002 43.407 42.407C43.7955 42.0102 44.119 41.5546 44.3655 41.057C44.5917 40.5948 44.7551 40.1045 44.8515 39.599C44.9372 39.0267 44.9868 38.4495 45 37.871C45 37.6145 45 37.2905 45 37.142V23.858C45 23.75 45 23.3855 45 23.1425ZM31.8105 39.95C30.1892 39.942 28.5963 39.524 27.18 38.735L22.05 40.085L23.4 35.063C22.5294 33.6002 22.0635 31.9322 22.05 30.23C22.0554 28.3169 22.6267 26.4483 23.6921 24.8593C24.7574 23.2703 26.2692 22.0322 28.0369 21.3007C29.8046 20.5693 31.7492 20.3773 33.6258 20.7489C35.5024 21.1205 37.2271 22.0391 38.5827 23.389C39.9382 24.7389 40.864 26.4598 41.2434 28.3349C41.6228 30.2099 41.4389 32.1553 40.7148 33.926C39.9907 35.6968 38.7588 37.2136 37.1743 38.2856C35.5898 39.3576 33.7235 39.9367 31.8105 39.95ZM31.8105 22.2245C30.3792 22.2409 28.9779 22.6362 27.7491 23.3703C26.5203 24.1044 25.508 25.1509 24.8152 26.4035C24.1224 27.656 23.7739 29.0697 23.8051 30.5007C23.8363 31.9317 24.2462 33.3289 24.993 34.55L25.182 34.8605L24.372 37.817L27.45 36.98L27.747 37.1555C28.9749 37.8788 30.3719 38.2653 31.797 38.276C33.9453 38.276 36.0055 37.4226 37.5246 35.9036C39.0436 34.3845 39.897 32.3243 39.897 30.176C39.897 28.0277 39.0436 25.9675 37.5246 24.4484C36.0055 22.9294 33.9453 22.076 31.797 22.076L31.8105 22.2245ZM36.5355 33.7265C36.3587 34.0214 36.1219 34.276 35.8405 34.4736C35.5592 34.6713 35.2394 34.8077 34.902 34.874C34.3978 34.9662 33.8788 34.9337 33.39 34.7795C32.9301 34.6357 32.4793 34.4644 32.04 34.2665C30.3711 33.429 28.9477 32.1732 27.909 30.6215C27.3445 29.9026 27.0021 29.0346 26.9235 28.124C26.9155 27.7457 26.987 27.37 27.1335 27.0211C27.2801 26.6723 27.4983 26.3581 27.774 26.099C27.8552 26.0069 27.9549 25.9329 28.0665 25.8817C28.1781 25.8306 28.2992 25.8034 28.422 25.802H28.8C28.9485 25.802 29.151 25.802 29.34 26.2205C29.529 26.639 30.0285 27.8945 30.096 28.016C30.1292 28.0808 30.1465 28.1525 30.1465 28.2252C30.1465 28.298 30.1292 28.3697 30.096 28.4345C30.0363 28.5812 29.9544 28.7178 29.853 28.8395C29.7315 28.988 29.5965 29.1635 29.4885 29.2715C29.3805 29.3795 29.2455 29.5145 29.3805 29.7575C29.7478 30.3774 30.2025 30.9412 30.7305 31.4315C31.3055 31.9396 31.9629 32.3459 32.6745 32.633C32.9175 32.7545 33.066 32.741 33.201 32.633C33.336 32.525 33.8085 31.931 33.9705 31.688C34.1325 31.445 34.2945 31.4855 34.5105 31.5665C34.7265 31.6475 35.928 32.228 36.171 32.3495C36.414 32.471 36.5625 32.525 36.63 32.633C36.6885 32.9863 36.656 33.3487 36.5355 33.686V33.7265Z" fill="#FBDAA8"/>
</svg>
